<svg width="289" height="327" viewBox="0 0 289 327" fill="none" xmlns="http://www.w3.org/2000/svg">
<circle cx="144.091" cy="182.091" r="133.591" fill="#2196F3" stroke="#060608" stroke-width="21"/>
<path d="M179.783 154.663L178.437 169.692L174.374 214.745L144.052 223.078L144.027 223.086L113.722 214.745L111.606 191.184H126.454L127.558 203.405L144.035 207.825L144.044 207.817L160.547 203.397L162.795 183.034L110.896 183.176L109.424 169.252L164.041 168.612L165.145 153.708L107.961 153.866L107 140H144.052H181.104L179.783 154.663Z" fill="#FAFAFA"/>
<path d="M109.891 38.3438C108.005 38.3438 106.469 38.151 105.281 37.7656C104.094 37.3802 103.177 36.8385 102.531 36.1406C101.896 35.4323 101.453 34.5938 101.203 33.625C100.964 32.6562 100.844 31.5833 100.844 30.4062V23.3125C100.844 22.1146 100.958 21.0156 101.188 20.0156C101.427 19.0052 101.865 18.1302 102.5 17.3906C103.146 16.651 104.057 16.0781 105.234 15.6719C106.422 15.2656 107.964 15.0625 109.859 15.0625C112.141 15.0625 113.891 15.3385 115.109 15.8906C116.328 16.4323 117.167 17.2344 117.625 18.2969C118.083 19.3594 118.312 20.6667 118.312 22.2188V22.4219L115.328 22.6875V22.2656C115.328 20.901 115.151 19.8854 114.797 19.2188C114.453 18.5521 113.88 18.1146 113.078 17.9062C112.276 17.6979 111.203 17.5938 109.859 17.5938C108.536 17.5938 107.443 17.7448 106.578 18.0469C105.714 18.3385 105.068 18.8594 104.641 19.6094C104.214 20.349 104 21.3906 104 22.7344V30.8906C104 32.224 104.219 33.2448 104.656 33.9531C105.094 34.6615 105.75 35.151 106.625 35.4219C107.51 35.6823 108.62 35.8125 109.953 35.8125C111.266 35.8125 112.312 35.724 113.094 35.5469C113.885 35.3698 114.453 34.9688 114.797 34.3438C115.151 33.7083 115.328 32.7188 115.328 31.375V31H118.312V31.1562C118.312 32.2917 118.203 33.3073 117.984 34.2031C117.776 35.0885 117.38 35.8385 116.797 36.4531C116.214 37.0677 115.365 37.5365 114.25 37.8594C113.146 38.1823 111.693 38.3438 109.891 38.3438ZM131.547 38.3438C129.87 38.3438 128.323 38.1667 126.906 37.8125C125.49 37.4479 124.188 36.9219 123 36.2344L124.109 33.8281C124.974 34.3385 126.073 34.7969 127.406 35.2031C128.74 35.6094 130.099 35.8125 131.484 35.8125C132.714 35.8125 133.651 35.651 134.297 35.3281C134.953 35.0052 135.406 34.5052 135.656 33.8281C135.906 33.1406 136.031 32.2552 136.031 31.1719C136.031 30.5365 135.859 30 135.516 29.5625C135.172 29.1146 134.427 28.6979 133.281 28.3125L127.828 26.5C126.266 25.9792 125.141 25.3177 124.453 24.5156C123.766 23.7031 123.422 22.526 123.422 20.9844C123.422 19.5365 123.75 18.3802 124.406 17.5156C125.073 16.651 125.979 16.026 127.125 15.6406C128.271 15.2552 129.562 15.0625 131 15.0625C132.927 15.0625 134.49 15.2135 135.688 15.5156C136.885 15.8073 137.849 16.1823 138.578 16.6406L137.812 19.0938C137.135 18.7292 136.286 18.3906 135.266 18.0781C134.255 17.7552 133.016 17.5938 131.547 17.5938C129.911 17.5938 128.656 17.8073 127.781 18.2344C126.906 18.6615 126.469 19.5833 126.469 21C126.469 21.6875 126.615 22.25 126.906 22.6875C127.208 23.1146 127.839 23.4948 128.797 23.8281L134.484 25.75C136.026 26.2708 137.151 26.9583 137.859 27.8125C138.578 28.6667 138.938 29.9479 138.938 31.6562C138.938 33.7396 138.359 35.375 137.203 36.5625C136.057 37.75 134.172 38.3438 131.547 38.3438ZM151.922 38.3438C150.245 38.3438 148.698 38.1667 147.281 37.8125C145.865 37.4479 144.562 36.9219 143.375 36.2344L144.484 33.8281C145.349 34.3385 146.448 34.7969 147.781 35.2031C149.115 35.6094 150.474 35.8125 151.859 35.8125C153.089 35.8125 154.026 35.651 154.672 35.3281C155.328 35.0052 155.781 34.5052 156.031 33.8281C156.281 33.1406 156.406 32.2552 156.406 31.1719C156.406 30.5365 156.234 30 155.891 29.5625C155.547 29.1146 154.802 28.6979 153.656 28.3125L148.203 26.5C146.641 25.9792 145.516 25.3177 144.828 24.5156C144.141 23.7031 143.797 22.526 143.797 20.9844C143.797 19.5365 144.125 18.3802 144.781 17.5156C145.448 16.651 146.354 16.026 147.5 15.6406C148.646 15.2552 149.938 15.0625 151.375 15.0625C153.302 15.0625 154.865 15.2135 156.062 15.5156C157.26 15.8073 158.224 16.1823 158.953 16.6406L158.188 19.0938C157.51 18.7292 156.661 18.3906 155.641 18.0781C154.63 17.7552 153.391 17.5938 151.922 17.5938C150.286 17.5938 149.031 17.8073 148.156 18.2344C147.281 18.6615 146.844 19.5833 146.844 21C146.844 21.6875 146.99 22.25 147.281 22.6875C147.583 23.1146 148.214 23.4948 149.172 23.8281L154.859 25.75C156.401 26.2708 157.526 26.9583 158.234 27.8125C158.953 28.6667 159.312 29.9479 159.312 31.6562C159.312 33.7396 158.734 35.375 157.578 36.5625C156.432 37.75 154.547 38.3438 151.922 38.3438ZM180.109 38.3438C178.432 38.3438 177.089 38.125 176.078 37.6875C175.068 37.2396 174.302 36.5 173.781 35.4688C173.271 34.4375 172.927 33.0365 172.75 31.2656H175.75C175.833 32.526 176.031 33.4844 176.344 34.1406C176.667 34.7865 177.146 35.2292 177.781 35.4688C178.417 35.6979 179.25 35.8125 180.281 35.8125C181.635 35.8125 182.609 35.4688 183.203 34.7812C183.807 34.0938 184.109 33.0885 184.109 31.7656C184.109 30.599 183.979 29.6875 183.719 29.0312C183.469 28.3646 182.953 27.8958 182.172 27.625C181.401 27.3438 180.234 27.2031 178.672 27.2031V24.875C179.88 24.875 180.823 24.7969 181.5 24.6406C182.188 24.474 182.688 24.2292 183 23.9062C183.312 23.5729 183.505 23.1667 183.578 22.6875C183.661 22.1979 183.703 21.6354 183.703 21C183.703 19.9375 183.432 19.1042 182.891 18.5C182.349 17.8958 181.406 17.5938 180.062 17.5938C179.135 17.5938 178.365 17.6927 177.75 17.8906C177.135 18.0781 176.672 18.4844 176.359 19.1094C176.057 19.7344 175.906 20.6927 175.906 21.9844H172.906C172.906 20.0677 173.219 18.6146 173.844 17.625C174.479 16.625 175.339 15.9479 176.422 15.5938C177.505 15.2396 178.714 15.0625 180.047 15.0625C181.995 15.0625 183.578 15.5312 184.797 16.4688C186.026 17.4062 186.641 18.901 186.641 20.9531C186.641 22.4427 186.359 23.6042 185.797 24.4375C185.245 25.2708 184.307 25.7917 182.984 26C184.276 26.2604 185.281 26.8125 186 27.6562C186.729 28.4896 187.094 29.8646 187.094 31.7812C187.094 33.9375 186.484 35.5729 185.266 36.6875C184.047 37.7917 182.328 38.3438 180.109 38.3438Z" fill="white"/>
</svg>
