<svg width="289" height="327" viewBox="0 0 289 327" fill="none" xmlns="http://www.w3.org/2000/svg">
<circle cx="144.091" cy="182.091" r="133.591" fill="#FF5722" stroke="#060608" stroke-width="21"/>
<path d="M180.788 154.794H145.056H124.174L125.524 169.957H145.056H179.438L175.38 215.42L145.056 223.827L145.031 223.835L114.724 215.42L112.607 191.64H127.456L128.562 203.978L145.039 208.429L145.056 208.421L161.551 203.97L163.272 184.767H145.056H111.999L108 140H145.056H182.104L180.788 154.794Z" fill="#FAFAFA"/>
<path d="M84.3125 15.4062H87.4531V25.3906H98.4219V15.4062H101.562V38H98.4219V27.7031H87.4531V38H84.3125V15.4062ZM112.703 38V17.9844H106.188V15.4062H122.375V17.9844H115.844V38H112.703ZM127.094 38V15.4062H129.984L137.672 27.9062L145.281 15.4062H148.062V38H145.094V20.4844L138.766 30.8438H136.438L130.094 20.5156V38H127.094ZM154.875 15.4062H158.016V35.5781H168.156V38H154.875V15.4062ZM187.25 38.3438C185.865 38.3438 184.615 38.1771 183.5 37.8438C182.385 37.5104 181.245 37.0052 180.078 36.3281L180.906 33.9375C181.635 34.4167 182.302 34.7917 182.906 35.0625C183.51 35.3333 184.141 35.526 184.797 35.6406C185.464 35.7552 186.24 35.8125 187.125 35.8125C188.583 35.8125 189.74 35.4427 190.594 34.7031C191.448 33.9635 191.875 32.776 191.875 31.1406C191.875 29.5469 191.536 28.3073 190.859 27.4219C190.182 26.5365 189.099 26.0938 187.609 26.0938C186.755 26.0938 185.964 26.276 185.234 26.6406C184.516 26.9948 183.875 27.3854 183.312 27.8125L181.062 26.875L181.859 15.4062H193.375V17.9844H184.375L183.906 25C184.958 24.1771 186.318 23.7656 187.984 23.7656C190.245 23.7656 191.948 24.3958 193.094 25.6562C194.25 26.9062 194.828 28.6823 194.828 30.9844C194.828 32.6823 194.5 34.0781 193.844 35.1719C193.188 36.2552 192.286 37.0573 191.141 37.5781C190.005 38.0885 188.708 38.3438 187.25 38.3438Z" fill="white"/>
</svg>
