<svg width="72" height="30" viewBox="0 0 72 30" fill="none" xmlns="http://www.w3.org/2000/svg">
<path d="M0.844727 27.6914L2.19238 23.3945C3.1429 23.8372 4.24967 24.2018 5.5127 24.4883C6.78874 24.7747 7.93457 24.918 8.9502 24.918C10.7731 24.918 12.0557 24.4753 12.7979 23.5898C13.54 22.7044 13.9111 21.6367 13.9111 20.3867V4.58594H3.98926V0.171875H19.7119V20.7578C19.7119 23.5312 18.7874 25.6797 16.9385 27.2031C15.0895 28.7266 12.5505 29.4883 9.32129 29.4883C7.91504 29.4883 6.46973 29.3385 4.98535 29.0391C3.50098 28.7396 2.12077 28.2904 0.844727 27.6914ZM28.7119 29L38.2041 0.171875H45.8994L55.5088 29H49.3564L47.7549 23.5117H36.4268L34.7666 29H28.7119ZM37.7939 19.0195H46.4268L42.1885 4.50781L37.7939 19.0195Z" fill="white"/>
<path d="M65.4658 23.4531H71.2861V29H65.4658V23.4531Z" fill="#23BE53"/>
</svg>
