<svg width="289" height="324" viewBox="0 0 289 324" fill="none" xmlns="http://www.w3.org/2000/svg">
<circle cx="144.091" cy="144.091" r="133.591" fill="#F7DF1E" stroke="#060608" stroke-width="21"/>
<path d="M102 162.795L111.777 156.879C113.663 160.223 115.379 163.052 119.494 163.052C123.439 163.052 125.926 161.509 125.926 155.507V114.686H137.932V155.677C137.932 168.111 130.643 173.771 120.009 173.771C110.405 173.771 104.83 168.797 102 162.794" fill="black"/>
<path d="M144.453 161.509L154.228 155.849C156.802 160.052 160.146 163.139 166.063 163.139C171.038 163.139 174.21 160.651 174.21 157.221C174.21 153.105 170.951 151.647 165.463 149.246L162.462 147.959C153.8 144.272 148.054 139.642 148.054 129.865C148.054 120.861 154.915 114 165.635 114C173.267 114 178.755 116.659 182.7 123.605L173.352 129.608C171.294 125.92 169.065 124.463 165.635 124.463C162.119 124.463 159.889 126.692 159.889 129.608C159.889 133.21 162.119 134.668 167.264 136.898L170.265 138.184C180.47 142.558 186.216 147.016 186.216 157.05C186.216 167.856 177.726 173.772 166.321 173.772C155.172 173.772 147.969 168.456 144.453 161.509" fill="black"/>
<path d="M74.5938 308.906L75.4531 306.484C75.7031 306.599 76.125 306.755 76.7188 306.953C77.3125 307.141 77.9948 307.312 78.7656 307.469C79.5365 307.615 80.3021 307.688 81.0625 307.688C82.5521 307.688 83.6302 307.307 84.2969 306.547C84.9635 305.776 85.2969 304.661 85.2969 303.203V289.984H76.6562V287.406H88.4375V303.266C88.4375 305.401 87.8594 307.104 86.7031 308.375C85.5469 309.635 83.6979 310.266 81.1562 310.266C80.2812 310.266 79.401 310.188 78.5156 310.031C77.6406 309.885 76.8542 309.708 76.1562 309.5C75.4583 309.281 74.9375 309.083 74.5938 308.906ZM99.1094 310.344C97.8906 310.344 96.8958 310.135 96.125 309.719C95.3646 309.292 94.8021 308.734 94.4375 308.047C94.0833 307.349 93.9062 306.604 93.9062 305.812C93.9062 304.979 94.0677 304.281 94.3906 303.719C94.724 303.146 95.3438 302.63 96.25 302.172C97.1667 301.703 98.5052 301.214 100.266 300.703C101.182 300.432 101.917 300.193 102.469 299.984C103.021 299.776 103.422 299.51 103.672 299.188C103.922 298.865 104.047 298.401 104.047 297.797C104.047 297.349 103.974 296.943 103.828 296.578C103.693 296.214 103.406 295.922 102.969 295.703C102.542 295.484 101.885 295.375 101 295.375C99.8958 295.375 99.0885 295.49 98.5781 295.719C98.0677 295.948 97.7396 296.25 97.5938 296.625C97.4583 296.99 97.3906 297.396 97.3906 297.844V298.578H94.5625V297.828C94.5625 296.193 95.1094 295 96.2031 294.25C97.2969 293.5 98.9271 293.125 101.094 293.125C103.281 293.125 104.807 293.635 105.672 294.656C106.547 295.677 106.984 297.042 106.984 298.75V305.812C106.984 306.688 107.094 307.25 107.312 307.5C107.542 307.75 108.01 307.875 108.719 307.875L108.375 310.125H107.781C106.677 310.125 105.88 309.911 105.391 309.484C104.901 309.047 104.531 308.438 104.281 307.656C104.042 308.031 103.708 308.427 103.281 308.844C102.865 309.26 102.318 309.615 101.641 309.906C100.974 310.198 100.13 310.344 99.1094 310.344ZM99.4688 308.156C100.062 308.156 100.682 308.031 101.328 307.781C101.974 307.521 102.547 307.182 103.047 306.766C103.557 306.339 103.891 305.87 104.047 305.359V301C103.818 301.229 103.417 301.531 102.844 301.906C102.281 302.271 101.474 302.604 100.422 302.906C99.1406 303.271 98.1979 303.646 97.5938 304.031C97 304.417 96.7031 304.979 96.7031 305.719C96.7031 306.552 96.9167 307.167 97.3438 307.562C97.7812 307.958 98.4896 308.156 99.4688 308.156ZM111.094 293.438H114.047L119.031 306.875L123.469 293.438H126.344L120.484 310H117.516L111.094 293.438ZM134.609 310.344C133.391 310.344 132.396 310.135 131.625 309.719C130.865 309.292 130.302 308.734 129.938 308.047C129.583 307.349 129.406 306.604 129.406 305.812C129.406 304.979 129.568 304.281 129.891 303.719C130.224 303.146 130.844 302.63 131.75 302.172C132.667 301.703 134.005 301.214 135.766 300.703C136.682 300.432 137.417 300.193 137.969 299.984C138.521 299.776 138.922 299.51 139.172 299.188C139.422 298.865 139.547 298.401 139.547 297.797C139.547 297.349 139.474 296.943 139.328 296.578C139.193 296.214 138.906 295.922 138.469 295.703C138.042 295.484 137.385 295.375 136.5 295.375C135.396 295.375 134.589 295.49 134.078 295.719C133.568 295.948 133.24 296.25 133.094 296.625C132.958 296.99 132.891 297.396 132.891 297.844V298.578H130.062V297.828C130.062 296.193 130.609 295 131.703 294.25C132.797 293.5 134.427 293.125 136.594 293.125C138.781 293.125 140.307 293.635 141.172 294.656C142.047 295.677 142.484 297.042 142.484 298.75V305.812C142.484 306.688 142.594 307.25 142.812 307.5C143.042 307.75 143.51 307.875 144.219 307.875L143.875 310.125H143.281C142.177 310.125 141.38 309.911 140.891 309.484C140.401 309.047 140.031 308.438 139.781 307.656C139.542 308.031 139.208 308.427 138.781 308.844C138.365 309.26 137.818 309.615 137.141 309.906C136.474 310.198 135.63 310.344 134.609 310.344ZM134.969 308.156C135.562 308.156 136.182 308.031 136.828 307.781C137.474 307.521 138.047 307.182 138.547 306.766C139.057 306.339 139.391 305.87 139.547 305.359V301C139.318 301.229 138.917 301.531 138.344 301.906C137.781 302.271 136.974 302.604 135.922 302.906C134.641 303.271 133.698 303.646 133.094 304.031C132.5 304.417 132.203 304.979 132.203 305.719C132.203 306.552 132.417 307.167 132.844 307.562C133.281 307.958 133.99 308.156 134.969 308.156ZM147.875 309L148.594 306.844C148.958 307.042 149.589 307.302 150.484 307.625C151.38 307.938 152.391 308.094 153.516 308.094C154.818 308.094 155.698 307.854 156.156 307.375C156.615 306.896 156.844 306.307 156.844 305.609C156.844 304.964 156.755 304.453 156.578 304.078C156.411 303.703 155.938 303.37 155.156 303.078L151.219 301.641C150.021 301.203 149.182 300.688 148.703 300.094C148.224 299.5 147.984 298.688 147.984 297.656C147.984 296.26 148.37 295.156 149.141 294.344C149.911 293.531 151.318 293.125 153.359 293.125C154.526 293.125 155.594 293.219 156.562 293.406C157.542 293.583 158.333 293.792 158.938 294.031L158.266 296.281C157.953 296.146 157.542 296.01 157.031 295.875C156.521 295.74 155.99 295.625 155.438 295.531C154.885 295.427 154.375 295.375 153.906 295.375C152.562 295.375 151.693 295.547 151.297 295.891C150.911 296.224 150.719 296.766 150.719 297.516C150.719 298.026 150.812 298.406 151 298.656C151.198 298.896 151.578 299.125 152.141 299.344L156.031 300.859C156.958 301.214 157.656 301.594 158.125 302C158.604 302.396 158.927 302.875 159.094 303.438C159.26 304 159.344 304.714 159.344 305.578C159.344 306.443 159.161 307.24 158.797 307.969C158.443 308.688 157.865 309.266 157.062 309.703C156.271 310.13 155.219 310.344 153.906 310.344C152.365 310.344 151.068 310.172 150.016 309.828C148.964 309.484 148.25 309.208 147.875 309ZM170.203 310.344C168.557 310.344 167.24 310.083 166.25 309.562C165.271 309.031 164.562 308.333 164.125 307.469C163.688 306.594 163.469 305.646 163.469 304.625V298.312C163.469 296.75 164.062 295.495 165.25 294.547C166.448 293.599 168.073 293.125 170.125 293.125C171.448 293.125 172.599 293.281 173.578 293.594C174.557 293.896 175.312 294.448 175.844 295.25C176.385 296.052 176.656 297.198 176.656 298.688L173.859 298.953C173.859 297.943 173.745 297.182 173.516 296.672C173.286 296.161 172.906 295.818 172.375 295.641C171.844 295.464 171.12 295.375 170.203 295.375C168.943 295.375 167.995 295.604 167.359 296.062C166.724 296.51 166.406 297.286 166.406 298.391V304.875C166.406 306.062 166.74 306.896 167.406 307.375C168.083 307.854 169.016 308.094 170.203 308.094C171.172 308.094 171.906 308.026 172.406 307.891C172.917 307.745 173.276 307.464 173.484 307.047C173.693 306.62 173.833 305.99 173.906 305.156H176.625C176.521 306.427 176.25 307.443 175.812 308.203C175.375 308.964 174.703 309.51 173.797 309.844C172.901 310.177 171.703 310.344 170.203 310.344ZM181.344 293.438H184.281V295.781C184.521 295.156 184.953 294.656 185.578 294.281C186.214 293.896 186.932 293.62 187.734 293.453C188.536 293.286 189.302 293.203 190.031 293.203L189.938 295.719C189 295.719 188.099 295.849 187.234 296.109C186.37 296.359 185.661 296.688 185.109 297.094C184.557 297.5 184.281 297.938 184.281 298.406V310H181.344V293.438ZM194.125 293.438H197.062V310H194.125V293.438ZM194.078 286.484H197.109V289.734H194.078V286.484ZM203.125 316.375V293.438H205.438L205.781 294.688C206.219 294.292 206.849 293.932 207.672 293.609C208.505 293.286 209.396 293.125 210.344 293.125C212.458 293.125 214.031 293.641 215.062 294.672C216.104 295.703 216.625 297.016 216.625 298.609V304.625C216.625 306.292 216.052 307.661 214.906 308.734C213.771 309.807 212.125 310.344 209.969 310.344C209.042 310.344 208.255 310.245 207.609 310.047C206.974 309.859 206.458 309.667 206.062 309.469V316.375H203.125ZM209.781 308.094C210.938 308.094 211.875 307.823 212.594 307.281C213.323 306.729 213.688 305.948 213.688 304.938V298.375C213.688 297.385 213.323 296.641 212.594 296.141C211.875 295.63 210.974 295.375 209.891 295.375C209.203 295.375 208.583 295.495 208.031 295.734C207.49 295.964 207.047 296.219 206.703 296.5C206.37 296.781 206.156 296.99 206.062 297.125V307.203C206.438 307.411 206.938 307.615 207.562 307.812C208.188 308 208.927 308.094 209.781 308.094ZM222.953 305.266V295.656H220.188V293.438H223.062L223.422 288.312H225.891V293.438H230.047V295.656H225.891V305.078C225.891 306.172 226.214 306.875 226.859 307.188C227.505 307.5 228.526 307.656 229.922 307.656H230.25L229.938 310.125H229.5C227.24 310.125 225.583 309.771 224.531 309.062C223.479 308.354 222.953 307.089 222.953 305.266Z" fill="white"/>
</svg>
