<svg width="214" height="248" viewBox="0 0 214 248" fill="none" xmlns="http://www.w3.org/2000/svg">
<circle cx="106.919" cy="106.919" r="96.4189" fill="#16181D" stroke="#060608" stroke-width="21"/>
<path fill-rule="evenodd" clip-rule="evenodd" d="M119.894 86.3766C118.097 80.7818 115.214 75.8301 111.153 71.5691C110.126 70.4913 108.985 69.5039 108.269 68.1631C107.816 67.3144 107.385 66.4539 106.944 65.5997L106.664 64.8951L106.586 65.1725C106.549 66.5664 105.76 67.5111 104.777 68.3936C103.67 69.3859 102.641 70.4637 101.578 71.505L98.31 75.8032L95.6679 80.6624L93.9007 85.434L93.8475 85.5078C92.8753 88.702 92.3957 91.9866 92.1604 95.3029C92.0714 96.5498 92.1735 97.8139 92.2432 99.067C92.3433 100.858 92.6545 102.619 93.1209 104.353C94.8164 110.65 98.2576 115.873 102.963 120.311C103.836 121.136 104.781 121.886 105.693 122.67L106.096 124.055L106.472 126.205L106.651 128.45C106.649 128.905 106.63 129.363 106.657 129.817C106.665 129.934 106.817 130.041 106.902 130.153L107.664 130.421L108.457 130.729L108.321 128.734L108.315 126.769L108.589 123.776L108.787 123.124L109.357 122.116C110.059 121.552 110.812 121.038 111.452 120.41C112.609 119.273 113.764 118.121 114.8 116.875C116.143 115.26 117.3 113.497 118.229 111.606C118.849 110.341 119.434 109.051 119.918 107.73C120.344 106.565 120.608 105.34 120.944 104.141L121.033 103.883C121.726 100.648 121.843 97.3799 121.588 94.0912C121.383 91.4407 120.76 88.8828 119.894 86.3766V86.3766ZM106.162 121.068C106.268 120.536 106.4 120.007 106.496 119.473C106.4 120.007 106.269 120.536 106.162 121.068ZM108.52 121.435L108.074 120.459L108.52 121.435L109.175 121.995L108.52 121.435ZM136.227 133.805C135.657 132.713 134.821 131.884 133.716 131.339C132.79 130.884 131.794 130.684 130.77 130.655C130.003 130.633 129.232 130.672 128.464 130.682C127.781 130.69 127.098 130.702 126.416 130.695C125.613 130.687 124.811 130.663 124.008 130.64C123.875 130.636 123.781 130.663 123.718 130.798C123.621 131.009 123.506 131.212 123.387 131.442L123.52 131.485C123.919 131.555 124.319 131.615 124.715 131.695C125.224 131.796 125.453 132.089 125.477 132.518C125.511 133.129 125.525 133.742 125.523 134.355C125.513 136.779 125.495 139.204 125.477 141.628C125.476 141.788 125.473 141.955 125.43 142.106C125.379 142.28 125.325 142.505 125.195 142.59C124.971 142.739 124.693 142.84 124.426 142.883C124.039 142.947 123.974 142.964 123.853 143.345L123.801 143.536C123.743 143.743 123.774 143.784 123.99 143.786C125.234 143.8 126.476 143.827 127.719 143.823C128.853 143.818 129.987 143.887 131.116 143.674C132.184 143.473 133.18 143.122 134.09 142.526C135.27 141.752 136.118 140.719 136.566 139.37C136.928 138.28 137.008 137.169 136.886 136.029C136.802 135.243 136.591 134.503 136.227 133.805V133.805ZM134.049 140.472C133.384 141.71 132.391 142.536 130.973 142.754C130.085 142.89 129.196 142.851 128.349 142.515C127.813 142.302 127.614 141.839 127.597 141.292C127.581 140.756 127.575 140.219 127.574 139.683C127.572 137.797 127.572 135.91 127.574 134.024C127.576 133.43 127.586 132.834 127.596 132.24C127.603 131.822 127.69 131.681 128.098 131.648C129.889 131.497 131.599 131.69 133.018 132.951C133.896 133.731 134.395 134.725 134.603 135.867C134.689 136.343 134.715 136.83 134.769 137.313C134.726 138.416 134.577 139.489 134.049 140.472ZM149.084 138.429C148.731 137.569 148.061 137.03 147.22 136.685C146.933 136.567 146.637 136.47 146.327 136.355L146.436 136.286C146.77 136.071 147.143 135.898 147.431 135.634C148.133 134.992 148.424 134.184 148.287 133.224C148.157 132.311 147.702 131.641 146.888 131.206C146.15 130.813 145.354 130.669 144.53 130.67C143.104 130.671 141.678 130.693 140.252 130.695C139.761 130.696 139.27 130.659 138.778 130.653C138.683 130.651 138.542 130.675 138.501 130.739C138.389 130.911 138.314 131.11 138.234 131.302C138.188 131.414 138.233 131.475 138.361 131.492C138.704 131.539 139.046 131.597 139.39 131.648C139.865 131.719 140.094 131.966 140.123 132.445L140.129 132.728C140.13 134.215 140.135 135.702 140.129 137.189C140.121 138.674 140.105 140.159 140.087 141.644C140.085 141.831 140.059 142.019 140.032 142.204C139.991 142.485 139.842 142.678 139.555 142.739L138.743 142.899C138.647 142.918 138.508 142.915 138.469 142.975C138.32 143.197 138.199 143.441 138.216 143.735L138.3 143.758L141.027 143.825L141.574 143.823C142.518 143.812 143.464 143.83 144.406 143.782C145.427 143.731 146.385 143.428 147.271 142.907C148.215 142.351 148.941 141.619 149.199 140.518C149.364 139.815 149.365 139.108 149.084 138.429V138.429ZM142.154 132.093C142.158 131.795 142.29 131.665 142.587 131.657C143.317 131.637 144.043 131.641 144.749 131.893C145.661 132.219 146.222 133.006 146.211 133.967C146.207 134.336 146.212 134.702 146.076 135.056C145.808 135.755 145.293 136.123 144.563 136.195C144.182 136.234 143.798 136.238 143.458 136.256L142.325 136.206C142.175 136.2 142.109 136.134 142.11 135.98L142.154 132.093V132.093ZM146.85 141.405C146.485 142.199 145.82 142.616 144.987 142.761C144.321 142.877 143.65 142.843 142.992 142.674C142.505 142.549 142.306 142.158 142.209 141.724C142.143 141.433 142.154 141.087 142.149 140.785C142.14 140.319 142.146 139.35 142.146 139.35H142.137C142.137 138.66 142.139 138.063 142.135 137.401C142.134 137.258 142.158 137.187 142.333 137.193C142.952 137.211 143.574 137.222 144.194 137.246C144.748 137.267 145.267 137.431 145.755 137.694C146.497 138.095 146.944 138.707 147.067 139.549C147.161 140.187 147.121 140.815 146.85 141.405V141.405ZM78.8221 142.149L78.8352 138.397C78.8372 137.832 78.7655 137.279 78.5805 136.744C78.0706 135.269 76.6643 134.598 75.2001 135.127C74.5342 135.368 73.9373 135.733 73.3673 136.147C73.0354 136.388 73.0354 136.388 72.7953 136.044C72.1156 135.07 71.1447 134.736 70.0145 135.096C69.2837 135.328 68.6448 135.724 68.0396 136.185C67.983 136.228 67.8692 136.276 67.8353 136.25C67.7788 136.208 67.7394 136.108 67.7408 136.033L67.7822 135.366C67.7857 135.226 67.7587 135.085 67.7449 134.938C67.4717 135.033 67.2536 135.127 67.0252 135.183C66.3193 135.355 65.6086 135.514 64.8986 135.676C64.7267 135.715 64.5453 135.767 64.5287 135.964C64.5114 136.158 64.6984 136.191 64.8434 136.249C65.1484 136.372 65.4513 136.502 65.7528 136.635C66.0061 136.746 66.1006 136.948 66.0992 137.22C66.0944 138.383 66.102 139.544 66.0951 140.707C66.0923 141.18 66.0702 141.652 66.0488 142.124C66.0295 142.543 65.8867 142.719 65.4809 142.824C65.2657 142.881 65.0469 142.919 64.8302 142.97C64.7826 142.981 64.7012 143.011 64.7005 143.035C64.6915 143.24 64.6805 143.449 64.715 143.649C64.7219 143.685 64.9386 143.685 65.0586 143.698L65.1394 143.694C65.9757 143.681 66.812 143.668 67.649 143.659C68.0927 143.654 68.5357 143.658 69.0174 143.658L69.0691 142.989C68.7931 142.939 68.5468 142.901 68.3039 142.848C67.925 142.765 67.7636 142.564 67.7539 142.182L67.747 141.634C67.7429 140.215 67.7374 138.796 67.7374 137.377C67.7374 137.171 67.8229 137.007 68.0044 136.884C68.3887 136.624 68.7945 136.418 69.2437 136.303C70.1904 136.06 71.0116 136.397 71.3759 137.202C71.4911 137.456 71.5815 137.737 71.6071 138.013C71.7409 139.436 71.683 140.86 71.6022 142.283C71.585 142.59 71.4408 142.745 71.1378 142.82L70.4257 142.97C70.3685 142.985 70.285 142.946 70.2808 142.994C70.265 143.191 70.2739 143.492 70.2739 143.492H70.4437L72.6118 143.563C73.2059 143.562 73.8007 143.634 74.3941 143.649C74.5004 143.651 74.5949 143.667 74.6011 143.544C74.6108 143.349 74.6025 143.166 74.5935 142.972L74.4804 142.952L73.8697 142.814C73.4577 142.717 73.3156 142.561 73.3142 142.144C73.3094 141.116 73.3232 140.089 73.3142 139.063C73.3094 138.476 73.2866 137.888 73.2487 137.302C73.2383 137.147 73.2625 137.044 73.3867 136.957C73.7524 136.696 74.1478 136.495 74.5818 136.381C75.917 136.029 77.01 136.761 77.079 138.137C77.1467 139.465 77.1184 140.797 77.108 142.128C77.1046 142.591 76.9514 142.731 76.4953 142.855L76.3379 142.896C75.8708 143.008 75.8749 143.008 75.9025 143.504C75.9115 143.659 75.9543 143.699 76.1199 143.695C77.0714 143.674 78.023 143.668 78.9746 143.66C79.3637 143.656 79.7529 143.66 80.1766 143.66L80.2629 143.014C79.8909 142.915 79.548 142.842 79.2168 142.734C78.9242 142.634 78.8207 142.458 78.8221 142.149V142.149ZM111.591 136.462C111.983 136.098 111.986 135.618 111.876 135.085C111.566 135.41 111.218 135.559 110.821 135.588C110.289 135.626 109.767 135.579 109.271 135.368C107.931 134.792 106.612 134.833 105.297 135.464C104.19 135.994 103.51 136.82 103.442 138.073C103.398 138.875 103.549 139.635 104.084 140.273C104.405 140.655 104.817 140.903 105.281 141.074C105.482 141.148 105.497 141.243 105.329 141.371C105.206 141.465 105.076 141.551 104.945 141.633C104.665 141.809 104.382 141.983 104.099 142.153C103.932 142.254 103.876 142.382 103.93 142.579C104.09 143.157 104.5 143.491 105.014 143.735L105.201 143.865L105.037 144.029C104.534 144.437 104.011 144.822 103.529 145.254C103.125 145.618 102.995 146.105 103.117 146.643C103.363 147.716 104.075 148.38 105.084 148.685C106.848 149.219 108.505 148.912 110.016 147.867C110.911 147.247 111.554 146.439 111.749 145.328C111.968 144.08 111.274 142.997 110.033 142.773C109.212 142.624 108.371 142.581 107.541 142.486C107.153 142.442 106.759 142.416 106.382 142.327C106.061 142.251 105.902 141.989 105.931 141.734C105.961 141.483 106.228 141.249 106.534 141.225C107.149 141.175 107.752 141.079 108.32 140.82C109.823 140.132 110.52 138.929 110.346 137.309C110.323 137.091 110.273 136.875 110.228 136.621C110.709 136.702 111.201 136.824 111.591 136.462V136.462ZM107.031 144.064C107.642 144.082 108.338 144.12 109.01 144.317C109.601 144.489 110.087 144.791 110.231 145.452C110.404 146.249 110.021 147.043 109.248 147.469C108.525 147.868 107.74 147.901 106.944 147.819C106.262 147.749 105.649 147.513 105.157 147.009C104.51 146.346 104.506 145.428 105.154 144.767C105.733 144.177 106.043 144.054 107.031 144.064V144.064ZM108.56 139.26C108.204 140.399 107.168 140.557 106.356 140.192C105.664 139.882 105.362 139.272 105.204 138.576C105.143 138.309 105.128 138.03 105.092 137.756C105.107 137.364 105.172 136.987 105.341 136.634C105.859 135.546 107.132 135.61 107.837 136.103C108.139 136.314 108.349 136.601 108.481 136.942C108.774 137.703 108.803 138.48 108.56 139.26ZM102.095 142.892C101.85 142.852 101.604 142.801 101.365 142.729C100.946 142.601 100.895 142.522 100.89 142.078C100.878 140.842 100.869 139.605 100.856 138.369C100.849 137.813 100.782 137.265 100.612 136.733C100.163 135.332 98.7896 134.58 97.415 134.994C96.6532 135.223 95.9991 135.651 95.3898 136.152L95.1676 136.323L95.1683 136.094C95.1828 135.831 95.2111 135.568 95.209 135.305C95.2076 135.168 95.1552 135.03 95.1296 134.909C94.61 135.066 94.1443 135.223 93.6688 135.343C93.192 135.464 92.7055 135.545 92.2232 135.643C91.9838 135.691 91.8078 135.836 91.8119 136.001C91.8182 136.234 92.0107 136.278 92.179 136.348C92.484 136.473 92.7883 136.599 93.0899 136.733C93.3052 136.829 93.3928 137.007 93.3907 137.238C93.3756 138.845 93.3659 140.453 93.3424 142.061C93.3355 142.569 93.2072 142.703 92.7076 142.814L92.4896 142.858C92.0272 142.937 92.0141 142.956 92.0459 143.444L92.0486 143.524C92.0431 143.712 92.1252 143.773 92.3184 143.771C93.5467 143.756 94.7756 143.749 96.0039 143.754C96.5304 143.756 96.587 143.715 96.5759 143.174L96.5511 142.941C96.2502 142.891 95.9625 142.854 95.681 142.792C95.3863 142.727 95.2807 142.606 95.2531 142.307C95.2276 142.033 95.2193 141.755 95.2166 141.479C95.2028 140.215 95.1917 138.952 95.1855 137.689C95.1841 137.371 95.2428 137.075 95.5354 136.87C95.9791 136.561 96.4648 136.381 97.0017 136.345C98.0975 136.269 98.9303 136.919 98.9897 138.011C99.0628 139.359 99.0407 140.711 99.058 142.062C99.0594 142.162 99.0414 142.264 99.0276 142.364C99.0014 142.561 98.9048 142.71 98.7047 142.761C98.5094 142.812 98.3114 142.857 98.112 142.888C97.8146 142.932 97.8083 142.93 97.7856 143.23L97.7932 143.432C97.8284 143.781 97.829 143.771 98.1823 143.767C99.3706 143.758 100.558 143.752 101.746 143.753C102.242 143.754 102.278 143.731 102.282 143.219L102.28 143.097C102.288 142.966 102.229 142.913 102.095 142.892V142.892ZM118.692 135.078C117.446 134.774 116.265 135.001 115.143 135.581C114.052 136.145 113.324 137.016 113.046 138.22C112.766 139.436 112.9 140.623 113.438 141.752C113.787 142.486 114.326 143.053 115.058 143.422C116.774 144.286 118.872 143.894 120.218 142.738C121.28 141.826 121.67 140.613 121.693 139.11C121.679 138.96 121.664 138.67 121.624 138.383C121.399 136.748 120.266 135.464 118.692 135.078V135.078ZM119.635 141.396C119.304 142.697 118.179 143.275 116.909 142.828C116.261 142.601 115.777 142.165 115.451 141.577C114.702 140.224 114.558 138.786 114.984 137.311C115.268 136.328 116.077 135.791 117.039 135.858C117.899 135.918 118.56 136.331 119.045 137.031C119.556 137.769 119.753 138.609 119.806 139.491C119.815 139.632 119.807 139.773 119.807 139.916L119.868 139.923C119.792 140.415 119.756 140.916 119.635 141.396V141.396ZM87.3661 135.057C86.0557 134.758 84.8281 135.054 83.6909 135.72C82.7076 136.295 82.0721 137.155 81.8285 138.278C81.6001 139.328 81.6933 140.359 82.0652 141.365C82.2915 141.977 82.6345 142.516 83.1375 142.937C84.1967 143.821 85.4347 144.044 86.7519 143.798C87.867 143.589 88.8469 143.093 89.559 142.167C90.2256 141.3 90.4795 140.305 90.5057 139.226C90.4664 138.885 90.4567 138.537 90.3843 138.204C90.0241 136.54 89.0511 135.441 87.3661 135.057V135.057ZM88.4349 141.392C88.1154 142.686 86.972 143.279 85.7114 142.832C84.9019 142.544 84.3748 141.951 84.0415 141.191C83.5074 139.971 83.3984 138.7 83.7441 137.413C84.009 136.428 84.8074 135.703 86.0295 135.877C86.7795 135.983 87.3647 136.366 87.8008 136.975C88.3901 137.797 88.584 138.738 88.6109 139.727V139.929L88.6606 139.937C88.5881 140.423 88.5522 140.917 88.4349 141.392V141.392Z" fill="#4FAA41"/>
<path d="M39.4062 234V211.406H42.2969L49.9844 223.906L57.5938 211.406H60.375V234H57.4062V216.484L51.0781 226.844H48.75L42.4062 216.516V234H39.4062ZM72.9531 234.344C71.2969 234.344 69.9635 234.12 68.9531 233.672C67.9531 233.214 67.224 232.589 66.7656 231.797C66.3177 231.005 66.0938 230.099 66.0938 229.078V222.406C66.0938 221.385 66.3177 220.479 66.7656 219.688C67.224 218.885 67.9531 218.26 68.9531 217.812C69.9635 217.354 71.2969 217.125 72.9531 217.125C74.599 217.125 75.9219 217.354 76.9219 217.812C77.9323 218.26 78.6667 218.885 79.125 219.688C79.5833 220.479 79.8125 221.385 79.8125 222.406V229.078C79.8125 230.099 79.5833 231.005 79.125 231.797C78.6667 232.589 77.9323 233.214 76.9219 233.672C75.9219 234.12 74.599 234.344 72.9531 234.344ZM72.9531 232.094C74.099 232.094 75.0365 231.891 75.7656 231.484C76.5052 231.068 76.875 230.349 76.875 229.328V222.156C76.875 221.135 76.5052 220.417 75.7656 220C75.0365 219.583 74.099 219.375 72.9531 219.375C71.7865 219.375 70.8385 219.583 70.1094 220C69.3906 220.417 69.0312 221.135 69.0312 222.156V229.328C69.0312 230.349 69.3906 231.068 70.1094 231.484C70.8385 231.891 71.7865 232.094 72.9531 232.094ZM85.0312 217.438H87.9688V219.047C88.4583 218.484 89.099 218.026 89.8906 217.672C90.6823 217.307 91.6771 217.125 92.875 217.125C94.2396 217.125 95.3333 217.349 96.1562 217.797C96.9896 218.234 97.5938 218.823 97.9688 219.562C98.3438 220.292 98.5312 221.094 98.5312 221.969V234H95.5938V221.797C95.5938 220.974 95.2708 220.365 94.625 219.969C93.9792 219.573 93.1458 219.375 92.125 219.375C90.6875 219.375 89.6354 219.646 88.9688 220.188C88.3021 220.729 87.9688 221.401 87.9688 222.203V234H85.0312V217.438ZM110.234 240.375C109.12 240.375 108.161 240.328 107.359 240.234C106.557 240.141 105.849 239.979 105.234 239.75L105.891 237.547C106.339 237.714 106.958 237.854 107.75 237.969C108.542 238.083 109.323 238.141 110.094 238.141C111.521 238.141 112.547 237.839 113.172 237.234C113.807 236.63 114.125 235.714 114.125 234.484V232.188C113.812 232.479 113.391 232.714 112.859 232.891C112.339 233.057 111.807 233.182 111.266 233.266C110.724 233.339 110.26 233.375 109.875 233.375C107.76 233.375 106.182 232.922 105.141 232.016C104.109 231.109 103.594 229.797 103.594 228.078V222.625C103.594 220.958 104.099 219.625 105.109 218.625C106.13 217.625 107.719 217.125 109.875 217.125C110.438 217.125 111.016 217.208 111.609 217.375C112.214 217.542 112.745 217.75 113.203 218C113.661 218.25 113.969 218.505 114.125 218.766V217.438H117.062V233.609C117.062 234.901 116.849 236.057 116.422 237.078C116.005 238.099 115.297 238.901 114.297 239.484C113.307 240.078 111.953 240.375 110.234 240.375ZM110.328 231.125C111.422 231.125 112.271 230.964 112.875 230.641C113.479 230.318 113.896 230.062 114.125 229.875V221.656C114.125 220.938 113.812 220.38 113.188 219.984C112.573 219.578 111.615 219.375 110.312 219.375C109.156 219.375 108.234 219.609 107.547 220.078C106.87 220.547 106.531 221.292 106.531 222.312V228.531C106.531 229.521 106.896 230.203 107.625 230.578C108.354 230.943 109.255 231.125 110.328 231.125ZM128.922 234.344C127.266 234.344 125.932 234.12 124.922 233.672C123.922 233.214 123.193 232.589 122.734 231.797C122.286 231.005 122.062 230.099 122.062 229.078V222.406C122.062 221.385 122.286 220.479 122.734 219.688C123.193 218.885 123.922 218.26 124.922 217.812C125.932 217.354 127.266 217.125 128.922 217.125C130.568 217.125 131.891 217.354 132.891 217.812C133.901 218.26 134.635 218.885 135.094 219.688C135.552 220.479 135.781 221.385 135.781 222.406V229.078C135.781 230.099 135.552 231.005 135.094 231.797C134.635 232.589 133.901 233.214 132.891 233.672C131.891 234.12 130.568 234.344 128.922 234.344ZM128.922 232.094C130.068 232.094 131.005 231.891 131.734 231.484C132.474 231.068 132.844 230.349 132.844 229.328V222.156C132.844 221.135 132.474 220.417 131.734 220C131.005 219.583 130.068 219.375 128.922 219.375C127.755 219.375 126.807 219.583 126.078 220C125.359 220.417 125 221.135 125 222.156V229.328C125 230.349 125.359 231.068 126.078 231.484C126.807 231.891 127.755 232.094 128.922 232.094ZM149.5 234V211.406H158.469C160.562 211.406 162.234 211.745 163.484 212.422C164.734 213.089 165.635 213.995 166.188 215.141C166.75 216.286 167.031 217.578 167.031 219.016V226.469C167.031 228.917 166.323 230.786 164.906 232.078C163.5 233.359 161.365 234 158.5 234H149.5ZM152.656 231.656H158.188C159.271 231.656 160.24 231.542 161.094 231.312C161.958 231.073 162.641 230.604 163.141 229.906C163.641 229.208 163.891 228.167 163.891 226.781V218.828C163.891 217.432 163.635 216.375 163.125 215.656C162.625 214.927 161.943 214.432 161.078 214.172C160.224 213.901 159.26 213.766 158.188 213.766H152.656V231.656ZM173.281 234V211.406H181.469C183.562 211.406 185.146 211.651 186.219 212.141C187.292 212.62 188.016 213.323 188.391 214.25C188.776 215.177 188.969 216.297 188.969 217.609C188.969 218.609 188.755 219.49 188.328 220.25C187.901 221.01 187.161 221.568 186.109 221.922C187.432 222.224 188.422 222.885 189.078 223.906C189.734 224.917 190.062 226.141 190.062 227.578C190.062 229.818 189.432 231.448 188.172 232.469C186.911 233.49 184.906 234 182.156 234H173.281ZM176.438 220.984H182.234C183.661 220.984 184.615 220.682 185.094 220.078C185.583 219.464 185.828 218.651 185.828 217.641C185.828 216.547 185.688 215.724 185.406 215.172C185.135 214.62 184.646 214.25 183.938 214.062C183.24 213.865 182.255 213.766 180.984 213.766H176.438V220.984ZM176.438 231.672H181.922C183.089 231.672 184.042 231.557 184.781 231.328C185.531 231.099 186.083 230.667 186.438 230.031C186.792 229.396 186.969 228.464 186.969 227.234C186.969 226.547 186.849 225.891 186.609 225.266C186.38 224.63 185.958 224.115 185.344 223.719C184.729 223.323 183.844 223.125 182.688 223.125H176.438V231.672Z" fill="white"/>
</svg>
