<svg width="188" height="229" viewBox="0 0 188 229" fill="none" xmlns="http://www.w3.org/2000/svg">
<path d="M177.5 95C177.5 141.773 140.011 179.5 94 179.5C47.9887 179.5 10.5 141.773 10.5 95C10.5 48.2269 47.9887 10.5 94 10.5C140.011 10.5 177.5 48.2269 177.5 95Z" fill="#16181D" stroke="#060608" stroke-width="21"/>
<g clip-path="url(#clip0_18_295)">
<path d="M91.7732 61.0183C91.627 61.0316 91.1617 61.0781 90.7429 61.1113C81.0847 61.982 72.0379 67.1926 66.3081 75.2012C63.1175 79.6541 61.0768 84.7051 60.3058 90.0553C60.0332 91.9228 60 92.4745 60 95.0067C60 97.5388 60.0332 98.0905 60.3058 99.958C62.1537 112.725 71.2403 123.452 83.564 127.427C85.7709 128.138 88.0974 128.623 90.7429 128.915C91.7732 129.028 96.2268 129.028 97.2571 128.915C101.824 128.41 105.692 127.28 109.508 125.333C110.093 125.034 110.206 124.954 110.126 124.888C110.073 124.848 107.58 121.505 104.589 117.464L99.1515 110.12L92.3382 100.038C88.5892 94.4949 85.505 89.9622 85.4784 89.9622C85.4518 89.9556 85.4252 94.4351 85.4119 99.9049C85.392 109.482 85.3853 109.867 85.2657 110.093C85.0929 110.419 84.9599 110.552 84.6807 110.698C84.468 110.805 84.2819 110.824 83.2782 110.824H82.1282L81.8225 110.632C81.6231 110.505 81.4768 110.339 81.3771 110.147L81.2375 109.847L81.2508 96.522L81.2708 83.1898L81.4768 82.9306C81.5832 82.7911 81.8092 82.6116 81.9687 82.5252C82.2413 82.3923 82.3476 82.379 83.4976 82.379C84.8536 82.379 85.0796 82.4322 85.4319 82.8176C85.5316 82.924 89.2207 88.4801 93.6344 95.1728C98.0481 101.865 104.084 111.004 107.048 115.49L112.432 123.645L112.705 123.465C115.118 121.897 117.67 119.664 119.691 117.338C123.992 112.4 126.764 106.378 127.694 99.958C127.967 98.0905 128 97.5388 128 95.0067C128 92.4745 127.967 91.9228 127.694 90.0553C125.846 77.288 116.76 66.5612 104.436 62.5868C102.262 61.8823 99.9492 61.3971 97.3568 61.1047C96.7187 61.0382 92.3249 60.9651 91.7732 61.0183ZM105.692 81.5815C106.011 81.741 106.271 82.0467 106.364 82.3657C106.417 82.5385 106.43 86.2338 106.417 94.5614L106.397 106.511L104.29 103.281L102.176 100.051V91.3646C102.176 85.7486 102.203 82.5917 102.242 82.4388C102.349 82.0666 102.581 81.7742 102.9 81.6014C103.173 81.4618 103.273 81.4485 104.316 81.4485C105.3 81.4485 105.473 81.4618 105.692 81.5815Z" fill="white"/>
</g>
<path d="M44.4062 192.406H46.7969L59.7344 210.484V192.406H62.5V215H59.7031L47.1719 197.75V215H44.4062V192.406ZM68.2188 209.156V203.391C68.2188 201.828 68.7552 200.562 69.8281 199.594C70.901 198.615 72.625 198.125 75 198.125C77.2708 198.125 78.9427 198.573 80.0156 199.469C81.0885 200.354 81.625 201.583 81.625 203.156V207.094H71.1562V209.422C71.1562 210.766 71.4219 211.714 71.9531 212.266C72.4948 212.818 73.5469 213.094 75.1094 213.094C76.0365 213.094 76.7656 213.062 77.2969 213C77.8385 212.927 78.2344 212.719 78.4844 212.375C78.7448 212.021 78.9167 211.427 79 210.594H81.5938C81.4583 211.896 81.1719 212.891 80.7344 213.578C80.3073 214.255 79.6458 214.719 78.75 214.969C77.8542 215.219 76.6406 215.344 75.1094 215.344C72.6406 215.344 70.875 214.828 69.8125 213.797C68.75 212.766 68.2188 211.219 68.2188 209.156ZM78.7812 205.109V202.844C78.7812 201.844 78.4323 201.182 77.7344 200.859C77.0469 200.536 76.1354 200.375 75 200.375C73.8333 200.375 72.901 200.578 72.2031 200.984C71.5052 201.391 71.1562 202.104 71.1562 203.125V205.109H78.7812ZM84.6875 215L90.375 206.547L84.7812 198.438H87.8906L92.0781 204.516L96.1406 198.438H99.2344L93.5625 206.672L99.3125 215H96.2031L91.875 208.734L87.8125 215H84.6875ZM104.203 210.266V200.656H101.438V198.438H104.312L104.672 193.312H107.141V198.438H111.297V200.656H107.141V210.078C107.141 211.172 107.464 211.875 108.109 212.188C108.755 212.5 109.776 212.656 111.172 212.656H111.5L111.188 215.125H110.75C108.49 215.125 106.833 214.771 105.781 214.062C104.729 213.354 104.203 212.089 104.203 210.266ZM116.094 211.219H120.094V215H116.094V211.219ZM123.203 218.078H123.656C124.354 218.078 124.917 218.01 125.344 217.875C125.781 217.74 126.104 217.458 126.312 217.031C126.521 216.604 126.625 215.948 126.625 215.062V198.438H129.562V214.891C129.562 216.516 129.365 217.729 128.969 218.531C128.583 219.333 128.016 219.865 127.266 220.125C126.516 220.385 125.604 220.516 124.531 220.516H123.5L123.203 218.078ZM126.578 191.484H129.609V194.734H126.578V191.484ZM134.625 214L135.344 211.844C135.708 212.042 136.339 212.302 137.234 212.625C138.13 212.938 139.141 213.094 140.266 213.094C141.568 213.094 142.448 212.854 142.906 212.375C143.365 211.896 143.594 211.307 143.594 210.609C143.594 209.964 143.505 209.453 143.328 209.078C143.161 208.703 142.688 208.37 141.906 208.078L137.969 206.641C136.771 206.203 135.932 205.688 135.453 205.094C134.974 204.5 134.734 203.688 134.734 202.656C134.734 201.26 135.12 200.156 135.891 199.344C136.661 198.531 138.068 198.125 140.109 198.125C141.276 198.125 142.344 198.219 143.312 198.406C144.292 198.583 145.083 198.792 145.688 199.031L145.016 201.281C144.703 201.146 144.292 201.01 143.781 200.875C143.271 200.74 142.74 200.625 142.188 200.531C141.635 200.427 141.125 200.375 140.656 200.375C139.312 200.375 138.443 200.547 138.047 200.891C137.661 201.224 137.469 201.766 137.469 202.516C137.469 203.026 137.562 203.406 137.75 203.656C137.948 203.896 138.328 204.125 138.891 204.344L142.781 205.859C143.708 206.214 144.406 206.594 144.875 207C145.354 207.396 145.677 207.875 145.844 208.438C146.01 209 146.094 209.714 146.094 210.578C146.094 211.443 145.911 212.24 145.547 212.969C145.193 213.688 144.615 214.266 143.812 214.703C143.021 215.13 141.969 215.344 140.656 215.344C139.115 215.344 137.818 215.172 136.766 214.828C135.714 214.484 135 214.208 134.625 214Z" fill="white"/>
<defs>
<clipPath id="clip0_18_295">
<rect width="68" height="68" fill="white" transform="translate(60 61)"/>
</clipPath>
</defs>
</svg>
