<svg width="214" height="251" viewBox="0 0 214 251" fill="none" xmlns="http://www.w3.org/2000/svg">
<circle cx="106.919" cy="143.919" r="96.4189" fill="#16181D" stroke="#060608" stroke-width="21"/>
<g clip-path="url(#clip0_18_294)">
<path d="M106.919 190.235C105.656 190.235 104.477 189.898 103.382 189.309L92.1814 182.658C90.4971 181.732 91.3393 181.395 91.8445 181.227C94.1183 180.469 94.5394 180.301 96.8974 178.954C97.1501 178.785 97.4869 178.869 97.7396 179.038L106.329 184.173C106.666 184.342 107.087 184.342 107.34 184.173L140.942 164.726C141.279 164.557 141.447 164.22 141.447 163.8V124.988C141.447 124.567 141.279 124.23 140.942 124.062L107.34 104.698C107.003 104.53 106.582 104.53 106.329 104.698L72.7278 124.062C72.391 124.23 72.2225 124.651 72.2225 124.988V163.8C72.2225 164.136 72.391 164.557 72.7278 164.726L81.9072 170.03C86.8759 172.555 89.9918 169.609 89.9918 166.662V128.356C89.9918 127.851 90.4129 127.345 91.0024 127.345H95.2973C95.8026 127.345 96.3079 127.766 96.3079 128.356V166.662C96.3079 173.313 92.6867 177.186 86.3706 177.186C84.4337 177.186 82.9178 177.186 78.6228 175.081L69.7803 170.03C67.5907 168.767 66.2433 166.409 66.2433 163.884V125.072C66.2433 122.547 67.5907 120.189 69.7803 118.926L103.382 99.4786C105.487 98.2999 108.351 98.2999 110.456 99.4786L144.058 118.926C146.247 120.189 147.595 122.547 147.595 125.072V163.884C147.595 166.409 146.247 168.767 144.058 170.03L110.456 189.477C109.361 189.983 108.098 190.235 106.919 190.235ZM117.277 163.547C102.54 163.547 99.5081 156.812 99.5081 151.087C99.5081 150.582 99.9291 150.077 100.519 150.077H104.898C105.403 150.077 105.824 150.413 105.824 150.918C106.498 155.381 108.435 157.569 117.362 157.569C124.436 157.569 127.467 155.97 127.467 152.181C127.467 149.992 126.625 148.393 115.593 147.298C106.414 146.372 100.687 144.352 100.687 137.027C100.687 130.208 106.414 126.167 116.014 126.167C126.794 126.167 132.099 129.871 132.773 137.953C132.773 138.206 132.689 138.458 132.52 138.711C132.352 138.879 132.099 139.048 131.846 139.048H127.467C127.046 139.048 126.625 138.711 126.541 138.29C125.53 133.66 122.92 132.144 116.014 132.144C108.266 132.144 107.34 134.838 107.34 136.859C107.34 139.3 108.435 140.058 118.877 141.405C129.236 142.752 134.12 144.688 134.12 151.929C134.036 159.337 127.973 163.547 117.277 163.547Z" fill="#539E43"/>
</g>
<path d="M59.4062 15.4062H61.7969L74.7344 33.4844V15.4062H77.5V38H74.7031L62.1719 20.75V38H59.4062V15.4062ZM90.0781 38.3438C88.4219 38.3438 87.0885 38.1198 86.0781 37.6719C85.0781 37.2135 84.349 36.5885 83.8906 35.7969C83.4427 35.0052 83.2188 34.099 83.2188 33.0781V26.4062C83.2188 25.3854 83.4427 24.4792 83.8906 23.6875C84.349 22.8854 85.0781 22.2604 86.0781 21.8125C87.0885 21.3542 88.4219 21.125 90.0781 21.125C91.724 21.125 93.0469 21.3542 94.0469 21.8125C95.0573 22.2604 95.7917 22.8854 96.25 23.6875C96.7083 24.4792 96.9375 25.3854 96.9375 26.4062V33.0781C96.9375 34.099 96.7083 35.0052 96.25 35.7969C95.7917 36.5885 95.0573 37.2135 94.0469 37.6719C93.0469 38.1198 91.724 38.3438 90.0781 38.3438ZM90.0781 36.0938C91.224 36.0938 92.1615 35.8906 92.8906 35.4844C93.6302 35.0677 94 34.349 94 33.3281V26.1562C94 25.1354 93.6302 24.4167 92.8906 24C92.1615 23.5833 91.224 23.375 90.0781 23.375C88.9115 23.375 87.9635 23.5833 87.2344 24C86.5156 24.4167 86.1562 25.1354 86.1562 26.1562V33.3281C86.1562 34.349 86.5156 35.0677 87.2344 35.4844C87.9635 35.8906 88.9115 36.0938 90.0781 36.0938ZM101.562 32.7656V26.5156C101.562 24.849 102.115 23.5365 103.219 22.5781C104.323 21.6094 106.078 21.125 108.484 21.125C109.005 21.125 109.62 21.1823 110.328 21.2969C111.036 21.4115 111.646 21.5625 112.156 21.75V14.4844H115.094V38H113.094L112.609 36.9062C112.13 37.2812 111.474 37.6146 110.641 37.9062C109.818 38.1979 108.979 38.3438 108.125 38.3438C106.542 38.3438 105.266 38.099 104.297 37.6094C103.339 37.1198 102.641 36.4583 102.203 35.625C101.776 34.7812 101.562 33.8281 101.562 32.7656ZM112.156 35.0469V24.0625C111.719 23.8542 111.172 23.6875 110.516 23.5625C109.87 23.4375 109.203 23.375 108.516 23.375C107.359 23.375 106.401 23.5885 105.641 24.0156C104.88 24.4427 104.5 25.1667 104.5 26.1875V32.9844C104.5 34.0156 104.865 34.7812 105.594 35.2812C106.333 35.7812 107.24 36.0312 108.312 36.0312C109.146 36.0312 109.911 35.9167 110.609 35.6875C111.307 35.4583 111.823 35.2448 112.156 35.0469ZM120.312 32.1562V26.3906C120.312 24.8281 120.849 23.5625 121.922 22.5938C122.995 21.6146 124.719 21.125 127.094 21.125C129.365 21.125 131.036 21.5729 132.109 22.4688C133.182 23.3542 133.719 24.5833 133.719 26.1562V30.0938H123.25V32.4219C123.25 33.7656 123.516 34.7135 124.047 35.2656C124.589 35.8177 125.641 36.0938 127.203 36.0938C128.13 36.0938 128.859 36.0625 129.391 36C129.932 35.9271 130.328 35.7188 130.578 35.375C130.839 35.0208 131.01 34.4271 131.094 33.5938H133.688C133.552 34.8958 133.266 35.8906 132.828 36.5781C132.401 37.2552 131.74 37.7188 130.844 37.9688C129.948 38.2188 128.734 38.3438 127.203 38.3438C124.734 38.3438 122.969 37.8281 121.906 36.7969C120.844 35.7656 120.312 34.2188 120.312 32.1562ZM130.875 28.1094V25.8438C130.875 24.8438 130.526 24.1823 129.828 23.8594C129.141 23.5365 128.229 23.375 127.094 23.375C125.927 23.375 124.995 23.5781 124.297 23.9844C123.599 24.3906 123.25 25.1042 123.25 26.125V28.1094H130.875ZM138.688 34.2188H142.688V38H138.688V34.2188ZM145.797 41.0781H146.25C146.948 41.0781 147.51 41.0104 147.938 40.875C148.375 40.7396 148.698 40.4583 148.906 40.0312C149.115 39.6042 149.219 38.9479 149.219 38.0625V21.4375H152.156V37.8906C152.156 39.5156 151.958 40.7292 151.562 41.5312C151.177 42.3333 150.609 42.8646 149.859 43.125C149.109 43.3854 148.198 43.5156 147.125 43.5156H146.094L145.797 41.0781ZM149.172 14.4844H152.203V17.7344H149.172V14.4844ZM157.219 37L157.938 34.8438C158.302 35.0417 158.932 35.3021 159.828 35.625C160.724 35.9375 161.734 36.0938 162.859 36.0938C164.161 36.0938 165.042 35.8542 165.5 35.375C165.958 34.8958 166.188 34.3073 166.188 33.6094C166.188 32.9635 166.099 32.4531 165.922 32.0781C165.755 31.7031 165.281 31.3698 164.5 31.0781L160.562 29.6406C159.365 29.2031 158.526 28.6875 158.047 28.0938C157.568 27.5 157.328 26.6875 157.328 25.6562C157.328 24.2604 157.714 23.1562 158.484 22.3438C159.255 21.5312 160.661 21.125 162.703 21.125C163.87 21.125 164.938 21.2188 165.906 21.4062C166.885 21.5833 167.677 21.7917 168.281 22.0312L167.609 24.2812C167.297 24.1458 166.885 24.0104 166.375 23.875C165.865 23.7396 165.333 23.625 164.781 23.5312C164.229 23.4271 163.719 23.375 163.25 23.375C161.906 23.375 161.036 23.5469 160.641 23.8906C160.255 24.224 160.062 24.7656 160.062 25.5156C160.062 26.026 160.156 26.4062 160.344 26.6562C160.542 26.8958 160.922 27.125 161.484 27.3438L165.375 28.8594C166.302 29.2135 167 29.5938 167.469 30C167.948 30.3958 168.271 30.875 168.438 31.4375C168.604 32 168.688 32.7135 168.688 33.5781C168.688 34.4427 168.505 35.2396 168.141 35.9688C167.786 36.6875 167.208 37.2656 166.406 37.7031C165.615 38.1302 164.562 38.3438 163.25 38.3438C161.708 38.3438 160.411 38.1719 159.359 37.8281C158.307 37.4844 157.594 37.2083 157.219 37Z" fill="white"/>
<defs>
<clipPath id="clip0_18_294">
<rect width="81.3513" height="91.8108" fill="white" transform="translate(66.2433 98.5946)"/>
</clipPath>
</defs>
</svg>
