<svg width="188" height="226" viewBox="0 0 188 226" fill="none" xmlns="http://www.w3.org/2000/svg">
<path d="M177.5 131C177.5 177.773 140.011 215.5 94 215.5C47.9887 215.5 10.5 177.773 10.5 131C10.5 84.2269 47.9887 46.5 94 46.5C140.011 46.5 177.5 84.2269 177.5 131Z" fill="#16181D" stroke="#060608" stroke-width="21"/>
<path d="M93.945 136.478C96.9947 136.478 99.467 134.006 99.467 130.956C99.467 127.906 96.9947 125.434 93.945 125.434C90.8953 125.434 88.423 127.906 88.423 130.956C88.423 134.006 90.8953 136.478 93.945 136.478Z" fill="#00D8FF"/>
<path d="M93.945 143.606C86.19 143.606 79.414 142.693 74.343 140.955C71.054 139.833 68.26 138.337 66.269 136.632C64.157 134.828 63.035 132.859 63.035 130.956C63.035 127.304 67.039 123.729 73.76 121.397C79.26 119.483 86.432 118.416 93.934 118.416C101.304 118.416 108.377 119.45 113.844 121.342C117.045 122.442 119.74 123.872 121.654 125.456C123.733 127.194 124.833 129.097 124.833 130.956C124.833 134.751 120.356 138.59 113.14 140.977C108.036 142.671 101.216 143.606 93.945 143.606ZM93.945 121.056C86.828 121.056 79.788 122.09 74.64 123.883C68.458 126.039 65.686 128.987 65.686 130.956C65.686 133.002 68.667 136.225 75.201 138.458C79.997 140.097 86.487 140.966 93.945 140.966C100.941 140.966 107.464 140.086 112.315 138.469C119.102 136.214 122.204 132.991 122.204 130.956C122.204 129.911 121.412 128.679 119.971 127.48C118.31 126.094 115.89 124.829 112.997 123.828C107.794 122.046 101.029 121.056 93.945 121.056Z" fill="#00D8FF"/>
<path d="M81.416 158.478C80.294 158.478 79.304 158.236 78.468 157.752C75.311 155.926 74.211 150.668 75.542 143.683C76.631 137.952 79.293 131.22 83.044 124.719C86.729 118.339 91.151 112.729 95.518 108.934C98.07 106.712 100.655 105.084 102.987 104.226C105.528 103.291 107.728 103.291 109.334 104.215C112.623 106.107 113.712 111.915 112.172 119.351C111.083 124.631 108.487 131 104.857 137.303C100.985 144.013 96.805 149.425 92.768 152.956C90.15 155.244 87.455 156.916 84.991 157.785C83.704 158.247 82.494 158.478 81.416 158.478ZM84.177 125.379L85.321 126.039C81.768 132.199 79.139 138.81 78.127 144.178C76.906 150.613 78.083 154.485 79.777 155.464C80.195 155.706 80.745 155.838 81.416 155.838C83.605 155.838 87.048 154.452 91.03 150.976C94.847 147.643 98.84 142.451 102.569 135.994C106.067 129.933 108.553 123.839 109.587 118.834C111.028 111.827 109.785 107.537 108.014 106.514C107.112 105.997 105.649 106.063 103.889 106.712C101.854 107.46 99.555 108.923 97.245 110.936C93.098 114.544 88.863 119.912 85.321 126.05L84.177 125.379Z" fill="#00D8FF"/>
<path d="M106.474 158.511C103.482 158.511 99.687 156.707 95.727 153.297C91.305 149.491 86.806 143.826 83.044 137.325C79.348 130.945 76.708 124.312 75.597 118.625C74.948 115.303 74.827 112.256 75.245 109.803C75.707 107.13 76.796 105.227 78.413 104.292C81.691 102.389 87.268 104.347 92.944 109.396C96.97 112.971 101.194 118.405 104.835 124.697C108.718 131.407 111.325 137.732 112.359 142.99C113.03 146.4 113.14 149.568 112.667 152.142C112.161 154.881 111.017 156.828 109.367 157.785C108.542 158.269 107.563 158.511 106.474 158.511ZM85.332 136.005C88.896 142.165 93.318 147.742 97.454 151.295C102.415 155.563 106.353 156.487 108.058 155.497C109.829 154.474 111.127 150.283 109.785 143.507C108.795 138.535 106.298 132.485 102.558 126.028C99.049 119.967 95.012 114.764 91.195 111.376C85.849 106.624 81.515 105.557 79.744 106.58C78.842 107.097 78.171 108.406 77.852 110.254C77.489 112.388 77.599 115.116 78.193 118.119C79.249 123.52 81.779 129.867 85.332 136.005Z" fill="#00D8FF"/>
<path d="M20.4062 38V15.4062H30.4844C31.7552 15.4062 32.8594 15.6146 33.7969 16.0312C34.7448 16.4375 35.4792 17.1302 36 18.1094C36.5312 19.0781 36.7969 20.4062 36.7969 22.0938C36.7969 23.9167 36.5 25.2708 35.9062 26.1562C35.3229 27.0312 34.5573 27.6667 33.6094 28.0625L38.4062 38H35.1719L30.6875 28.625H23.5625V38H20.4062ZM23.5625 26.25H30.2188C31.1354 26.25 31.8385 26.0781 32.3281 25.7344C32.8177 25.3906 33.1562 24.9271 33.3438 24.3438C33.5417 23.75 33.6406 23.0938 33.6406 22.375C33.6406 21.6458 33.5781 20.9323 33.4531 20.2344C33.3385 19.5365 33.0677 18.9583 32.6406 18.5C32.2135 18.0312 31.526 17.7969 30.5781 17.7969H23.5625V26.25ZM42.1875 32.1562V26.3906C42.1875 24.8281 42.724 23.5625 43.7969 22.5938C44.8698 21.6146 46.5938 21.125 48.9688 21.125C51.2396 21.125 52.9115 21.5729 53.9844 22.4688C55.0573 23.3542 55.5938 24.5833 55.5938 26.1562V30.0938H45.125V32.4219C45.125 33.7656 45.3906 34.7135 45.9219 35.2656C46.4635 35.8177 47.5156 36.0938 49.0781 36.0938C50.0052 36.0938 50.7344 36.0625 51.2656 36C51.8073 35.9271 52.2031 35.7188 52.4531 35.375C52.7135 35.0208 52.8854 34.4271 52.9688 33.5938H55.5625C55.4271 34.8958 55.1406 35.8906 54.7031 36.5781C54.276 37.2552 53.6146 37.7188 52.7188 37.9688C51.8229 38.2188 50.6094 38.3438 49.0781 38.3438C46.6094 38.3438 44.8438 37.8281 43.7812 36.7969C42.7188 35.7656 42.1875 34.2188 42.1875 32.1562ZM52.75 28.1094V25.8438C52.75 24.8438 52.401 24.1823 51.7031 23.8594C51.0156 23.5365 50.1042 23.375 48.9688 23.375C47.8021 23.375 46.8698 23.5781 46.1719 23.9844C45.474 24.3906 45.125 25.1042 45.125 26.125V28.1094H52.75ZM64.9219 38.3438C63.7031 38.3438 62.7083 38.1354 61.9375 37.7188C61.1771 37.2917 60.6146 36.7344 60.25 36.0469C59.8958 35.349 59.7188 34.6042 59.7188 33.8125C59.7188 32.9792 59.8802 32.2812 60.2031 31.7188C60.5365 31.1458 61.1562 30.6302 62.0625 30.1719C62.9792 29.7031 64.3177 29.2135 66.0781 28.7031C66.9948 28.4323 67.7292 28.1927 68.2812 27.9844C68.8333 27.776 69.2344 27.5104 69.4844 27.1875C69.7344 26.8646 69.8594 26.401 69.8594 25.7969C69.8594 25.349 69.7865 24.9427 69.6406 24.5781C69.5052 24.2135 69.2188 23.9219 68.7812 23.7031C68.3542 23.4844 67.6979 23.375 66.8125 23.375C65.7083 23.375 64.901 23.4896 64.3906 23.7188C63.8802 23.9479 63.5521 24.25 63.4062 24.625C63.2708 24.9896 63.2031 25.3958 63.2031 25.8438V26.5781H60.375V25.8281C60.375 24.1927 60.9219 23 62.0156 22.25C63.1094 21.5 64.7396 21.125 66.9062 21.125C69.0938 21.125 70.6198 21.6354 71.4844 22.6562C72.3594 23.6771 72.7969 25.0417 72.7969 26.75V33.8125C72.7969 34.6875 72.9062 35.25 73.125 35.5C73.3542 35.75 73.8229 35.875 74.5312 35.875L74.1875 38.125H73.5938C72.4896 38.125 71.6927 37.9115 71.2031 37.4844C70.7135 37.0469 70.3438 36.4375 70.0938 35.6562C69.8542 36.0312 69.5208 36.4271 69.0938 36.8438C68.6771 37.2604 68.1302 37.6146 67.4531 37.9062C66.7865 38.1979 65.9427 38.3438 64.9219 38.3438ZM65.2812 36.1562C65.875 36.1562 66.4948 36.0312 67.1406 35.7812C67.7865 35.5208 68.3594 35.1823 68.8594 34.7656C69.3698 34.3385 69.7031 33.8698 69.8594 33.3594V29C69.6302 29.2292 69.2292 29.5312 68.6562 29.9062C68.0938 30.2708 67.2865 30.6042 66.2344 30.9062C64.9531 31.2708 64.0104 31.6458 63.4062 32.0312C62.8125 32.4167 62.5156 32.9792 62.5156 33.7188C62.5156 34.5521 62.7292 35.1667 63.1562 35.5625C63.5938 35.9583 64.3021 36.1562 65.2812 36.1562ZM85.0156 38.3438C83.3698 38.3438 82.0521 38.0833 81.0625 37.5625C80.0833 37.0312 79.375 36.3333 78.9375 35.4688C78.5 34.5938 78.2812 33.6458 78.2812 32.625V26.3125C78.2812 24.75 78.875 23.4948 80.0625 22.5469C81.2604 21.599 82.8854 21.125 84.9375 21.125C86.2604 21.125 87.4115 21.2812 88.3906 21.5938C89.3698 21.8958 90.125 22.4479 90.6562 23.25C91.1979 24.0521 91.4688 25.1979 91.4688 26.6875L88.6719 26.9531C88.6719 25.9427 88.5573 25.1823 88.3281 24.6719C88.099 24.1615 87.7188 23.8177 87.1875 23.6406C86.6562 23.4635 85.9323 23.375 85.0156 23.375C83.7552 23.375 82.8073 23.6042 82.1719 24.0625C81.5365 24.5104 81.2188 25.2865 81.2188 26.3906V32.875C81.2188 34.0625 81.5521 34.8958 82.2188 35.375C82.8958 35.8542 83.8281 36.0938 85.0156 36.0938C85.9844 36.0938 86.7188 36.026 87.2188 35.8906C87.7292 35.7448 88.0885 35.4635 88.2969 35.0469C88.5052 34.6198 88.6458 33.9896 88.7188 33.1562H91.4375C91.3333 34.4271 91.0625 35.4427 90.625 36.2031C90.1875 36.9635 89.5156 37.5104 88.6094 37.8438C87.7135 38.1771 86.5156 38.3438 85.0156 38.3438ZM97.2656 33.2656V23.6562H94.5V21.4375H97.375L97.7344 16.3125H100.203V21.4375H104.359V23.6562H100.203V33.0781C100.203 34.1719 100.526 34.875 101.172 35.1875C101.818 35.5 102.839 35.6562 104.234 35.6562H104.562L104.25 38.125H103.812C101.552 38.125 99.8958 37.7708 98.8438 37.0625C97.7917 36.3542 97.2656 35.0885 97.2656 33.2656ZM109.156 34.2188H113.156V38H109.156V34.2188ZM116.266 41.0781H116.719C117.417 41.0781 117.979 41.0104 118.406 40.875C118.844 40.7396 119.167 40.4583 119.375 40.0312C119.583 39.6042 119.688 38.9479 119.688 38.0625V21.4375H122.625V37.8906C122.625 39.5156 122.427 40.7292 122.031 41.5312C121.646 42.3333 121.078 42.8646 120.328 43.125C119.578 43.3854 118.667 43.5156 117.594 43.5156H116.562L116.266 41.0781ZM119.641 14.4844H122.672V17.7344H119.641V14.4844ZM127.688 37L128.406 34.8438C128.771 35.0417 129.401 35.3021 130.297 35.625C131.193 35.9375 132.203 36.0938 133.328 36.0938C134.63 36.0938 135.51 35.8542 135.969 35.375C136.427 34.8958 136.656 34.3073 136.656 33.6094C136.656 32.9635 136.568 32.4531 136.391 32.0781C136.224 31.7031 135.75 31.3698 134.969 31.0781L131.031 29.6406C129.833 29.2031 128.995 28.6875 128.516 28.0938C128.036 27.5 127.797 26.6875 127.797 25.6562C127.797 24.2604 128.182 23.1562 128.953 22.3438C129.724 21.5312 131.13 21.125 133.172 21.125C134.339 21.125 135.406 21.2188 136.375 21.4062C137.354 21.5833 138.146 21.7917 138.75 22.0312L138.078 24.2812C137.766 24.1458 137.354 24.0104 136.844 23.875C136.333 23.7396 135.802 23.625 135.25 23.5312C134.698 23.4271 134.188 23.375 133.719 23.375C132.375 23.375 131.505 23.5469 131.109 23.8906C130.724 24.224 130.531 24.7656 130.531 25.5156C130.531 26.026 130.625 26.4062 130.812 26.6562C131.01 26.8958 131.391 27.125 131.953 27.3438L135.844 28.8594C136.771 29.2135 137.469 29.5938 137.938 30C138.417 30.3958 138.74 30.875 138.906 31.4375C139.073 32 139.156 32.7135 139.156 33.5781C139.156 34.4427 138.974 35.2396 138.609 35.9688C138.255 36.6875 137.677 37.2656 136.875 37.7031C136.083 38.1302 135.031 38.3438 133.719 38.3438C132.177 38.3438 130.88 38.1719 129.828 37.8281C128.776 37.4844 128.062 37.2083 127.688 37Z" fill="white"/>
</svg>
